<?xml version="1.0" encoding="UTF-8"?><svg id="Layer_2" xmlns="http://www.w3.org/2000/svg" viewBox="0 0 72.18 58.52"><defs><style>.cls-1{fill:#fff;stroke-width:0px;}</style></defs><g id="Layer_1-2"><path class="cls-1" d="m16.38,37.78c-7.36-10-4.64-22.54,6.12-28.73,8.8-5.06,17.71-1.28,21.57,1.51,1.31.95,3.11.77,4.26-.37h0c1.44-1.44,1.24-3.82-.39-5.04C37.66-2.48,23.07-1.64,13.76,7.68c-9.45,9.45-10.17,24.33-2.17,34.61L.96,52.92c-1.28,1.28-1.28,3.36,0,4.63h0c1.28,1.28,3.36,1.28,4.64,0l10.63-10.63c9.31,7.24,22.37,7.34,31.77.3,1.6-1.2,1.77-3.54.36-4.95h0c-1.16-1.16-2.99-1.26-4.31-.28-8.49,6.33-20.93,4.93-27.66-4.22Z"/><path class="cls-1" d="m30.94,15.68h10.66c.15,0,.26-.12.26-.26s-.12-.26-.26-.26h-10.66c-.15,0-.26.12-.26.26s.12.26.26.26Z"/><path class="cls-1" d="m30.45,23.75h36.79c.15,0,.26-.12.26-.26s-.12-.26-.26-.26H30.45c-.15,0-.26.12-.26.26s.12.26.26.26Z"/><path class="cls-1" d="m30.94,13.52h3.71c.15,0,.26-.12.26-.26s-.12-.26-.26-.26h-3.71c-.15,0-.26.12-.26.26s.12.26.26.26Z"/><path class="cls-1" d="m67.24,19.71c.15,0,.26-.12.26-.26s-.12-.26-.26-.26h-32.59c-.15,0-.26.12-.26.26s.12.26.26.26h32.59Z"/><path class="cls-1" d="m33.39,21.47c0,.15.12.26.26.26h33.58c.15,0,.26-.12.26-.26s-.12-.26-.26-.26h-33.58c-.15,0-.26.12-.26.26Z"/><path class="cls-1" d="m54.1,13.52h14.38c.15,0,.26-.12.26-.26s-.12-.26-.26-.26h-14.38c-.15,0-.26.12-.26.26s.12.26.26.26Z"/><path class="cls-1" d="m59.58,11.37h4.56c.15,0,.26-.12.26-.26s-.12-.26-.26-.26h-4.56c-.15,0-.26.12-.26.26s.12.26.26.26Z"/><path class="cls-1" d="m32.76,11.37h1.11c.15,0,.26-.12.26-.26s-.12-.26-.26-.26h-1.11c-.15,0-.26.12-.26.26s.12.26.26.26Z"/><path class="cls-1" d="m71.91,15.15h-20.18c-.15,0-.26.12-.26.26s.12.26.26.26h20.18c.15,0,.26-.12.26-.26s-.12-.26-.26-.26Z"/><path class="cls-1" d="m44.33,15.68h4.36c.15,0,.26-.12.26-.26s-.12-.26-.26-.26h-4.36c-.15,0-.26.12-.26.26s.12.26.26.26Z"/><path class="cls-1" d="m67.69,29.27H31.26c-.15,0-.26.12-.26.26s.12.26.26.26h36.43c.15,0,.26-.12.26-.26s-.12-.26-.26-.26Z"/><path class="cls-1" d="m58.36,31.29h-24.7c-.15,0-.26.12-.26.26s.12.26.26.26h24.7c.15,0,.26-.12.26-.26s-.12-.26-.26-.26Z"/><path class="cls-1" d="m57.03,33.31h-22.49c-.15,0-.26.12-.26.26s.12.26.26.26h22.49c.15,0,.26-.12.26-.26s-.12-.26-.26-.26Z"/><path class="cls-1" d="m71.34,17.17H31.79c-.15,0-.26.12-.26.26s.12.26.26.26h39.55c.15,0,.26-.12.26-.26s-.12-.26-.26-.26Z"/><path class="cls-1" d="m31.31,27.26c-.15,0-.26.12-.26.26s.12.26.26.26h34.4c.15,0,.26-.12.26-.26s-.12-.26-.26-.26H31.31Z"/><path class="cls-1" d="m40.11,37.35h-5.57c-.15,0-.26.12-.26.26s.12.26.26.26h5.57c.15,0,.26-.12.26-.26s-.12-.26-.26-.26Z"/><path class="cls-1" d="m64.44,25.5c0-.15-.12-.26-.26-.26H30.45c-.15,0-.26.12-.26.26s.12.26.26.26h33.73c.15,0,.26-.12.26-.26Z"/><path class="cls-1" d="m55.2,37.35h-9.59c-.15,0-.26.12-.26.26s.12.26.26.26h9.59c.15,0,.26-.12.26-.26s-.12-.26-.26-.26Z"/><path class="cls-1" d="m55.2,35.33h-20.66c-.15,0-.26.12-.26.26s.12.26.26.26h20.66c.15,0,.26-.12.26-.26s-.12-.26-.26-.26Z"/><circle class="cls-1" cx="62.47" cy="3.31" r="3.28"/></g></svg>