<?xml version="1.0" encoding="UTF-8"?><svg id="Layer_2" xmlns="http://www.w3.org/2000/svg" viewBox="0 0 522.75 114.89"><defs><style>.cls-1{fill:#ac1b18;}.cls-1,.cls-2{stroke-width:0px;}.cls-2{fill:#fff;}</style></defs><g id="Layer_1-2"><path class="cls-2" d="m32.16,74.18c-14.45-19.63-9.12-44.25,12.01-56.4,17.28-9.94,34.78-2.51,42.35,2.97,2.57,1.86,6.12,1.52,8.36-.72h0c2.83-2.83,2.44-7.5-.77-9.89C73.94-4.86,45.3-3.21,27.01,15.08c-18.56,18.56-19.97,47.77-4.26,67.96L1.88,103.91c-2.51,2.51-2.51,6.59,0,9.1h0c2.51,2.51,6.59,2.51,9.1,0l20.87-20.87c18.27,14.22,43.91,14.42,62.38.58,3.14-2.35,3.48-6.95.7-9.72h0c-2.29-2.29-5.88-2.47-8.47-.54-16.67,12.43-41.09,9.67-54.31-8.29Z"/><path class="cls-1" d="m60.76,30.98h20.93c.29,0,.52-.23.52-.52s-.23-.52-.52-.52h-20.93c-.29,0-.52.23-.52.52s.23.52.52.52Z"/><path class="cls-1" d="m59.79,46.83h72.23c.29,0,.52-.23.52-.52s-.23-.52-.52-.52H59.79c-.29,0-.52.23-.52.52s.23.52.52.52Z"/><path class="cls-1" d="m60.76,26.75h7.28c.29,0,.52-.23.52-.52s-.23-.52-.52-.52h-7.28c-.29,0-.52.23-.52.52s.23.52.52.52Z"/><path class="cls-1" d="m132.02,38.9c.29,0,.52-.23.52-.52s-.23-.52-.52-.52h-63.98c-.29,0-.52.23-.52.52s.23.52.52.52h63.98Z"/><path class="cls-1" d="m65.56,42.35c0,.29.23.52.52.52h65.94c.29,0,.52-.23.52-.52s-.23-.52-.52-.52h-65.94c-.29,0-.52.23-.52.52Z"/><path class="cls-1" d="m106.22,26.75h28.24c.29,0,.52-.23.52-.52s-.23-.52-.52-.52h-28.24c-.29,0-.52.23-.52.52s.23.52.52.52Z"/><path class="cls-1" d="m116.99,22.53h8.96c.29,0,.52-.23.52-.52s-.23-.52-.52-.52h-8.96c-.29,0-.52.23-.52.52s.23.52.52.52Z"/><path class="cls-1" d="m64.33,22.53h2.17c.29,0,.52-.23.52-.52s-.23-.52-.52-.52h-2.17c-.29,0-.52.23-.52.52s.23.52.52.52Z"/><path class="cls-1" d="m141.2,29.94h-39.62c-.29,0-.52.23-.52.52s.23.52.52.52h39.62c.29,0,.52-.23.52-.52s-.23-.52-.52-.52Z"/><path class="cls-1" d="m87.04,30.98h8.56c.29,0,.52-.23.52-.52s-.23-.52-.52-.52h-8.56c-.29,0-.52.23-.52.52s.23.52.52.52Z"/><path class="cls-1" d="m132.91,57.68H61.39c-.29,0-.52.23-.52.52s.23.52.52.52h71.52c.29,0,.52-.23.52-.52s-.23-.52-.52-.52Z"/><path class="cls-1" d="m114.58,61.65h-48.5c-.29,0-.52.23-.52.52s.23.52.52.52h48.5c.29,0,.52-.23.52-.52s-.23-.52-.52-.52Z"/><path class="cls-1" d="m111.98,65.61h-44.16c-.29,0-.52.23-.52.52s.23.52.52.52h44.16c.29,0,.52-.23.52-.52s-.23-.52-.52-.52Z"/><path class="cls-1" d="m140.07,33.9H62.42c-.29,0-.52.23-.52.52s.23.52.52.52h77.65c.29,0,.52-.23.52-.52s-.23-.52-.52-.52Z"/><path class="cls-1" d="m61.49,53.72c-.29,0-.52.23-.52.52s.23.52.52.52h67.54c.29,0,.52-.23.52-.52s-.23-.52-.52-.52H61.49Z"/><path class="cls-1" d="m78.75,73.53h-10.93c-.29,0-.52.23-.52.52s.23.52.52.52h10.93c.29,0,.52-.23.52-.52s-.23-.52-.52-.52Z"/><path class="cls-1" d="m126.53,50.27c0-.29-.23-.52-.52-.52H59.79c-.29,0-.52.23-.52.52s.23.52.52.52h66.22c.29,0,.52-.23.52-.52Z"/><path class="cls-1" d="m108.39,73.53h-18.84c-.29,0-.52.23-.52.52s.23.52.52.52h18.84c.29,0,.52-.23.52-.52s-.23-.52-.52-.52Z"/><path class="cls-1" d="m108.39,69.57h-40.57c-.29,0-.52.23-.52.52s.23.52.52.52h40.57c.29,0,.52-.23.52-.52s-.23-.52-.52-.52Z"/><path class="cls-2" d="m187.46,4.31l-55.9,77.4c-.78,1.08-2.48.53-2.48-.8v-13.37h-6.01l-6.86,8.57v15.96c0,4.45,2.56,8.71,6.73,10.24,4.58,1.68,9.45.04,12.11-3.66l55.9-77.4c.78-1.08,2.48-.53,2.48.8v74.48c0,3.55,2.88,6.44,6.44,6.44h0c3.55,0,6.44-2.88,6.44-6.44V10.41C206.31,4.66,201.65,0,195.9,0h0c-3.34,0-6.48,1.6-8.44,4.31Z"/><path class="cls-2" d="m223.87,6.44v90.09c0,3.55,2.88,6.44,6.44,6.44h0c3.55,0,6.44-2.88,6.44-6.44V16.03c0-1.75,1.42-3.16,3.16-3.16h54.75c3.55,0,6.44-2.88,6.44-6.44h0C301.1,2.88,298.21,0,294.66,0h-64.35c-3.55,0-6.44,2.88-6.44,6.44Z"/><path class="cls-2" d="m393.82,3.55l-29.54,59.07c-.36.71-1.37.71-1.73,0l-29.54-59.07C331.94,1.38,329.71,0,327.28,0h-2.18c-3.54,0-6.42,2.87-6.43,6.41l-.27,90.12c-.01,3.56,2.87,6.44,6.43,6.44h0c3.55,0,6.43-2.88,6.43-6.43V29.83c0-1.02,1.37-1.34,1.83-.43l22.14,44.27c1.09,2.18,3.31,3.55,5.75,3.55h4.93c2.43,0,4.66-1.38,5.75-3.55l22.14-44.27c.46-.91,1.83-.59,1.83.43v66.71c0,3.55,2.88,6.43,6.43,6.43h.02c3.55,0,6.43-2.88,6.43-6.43V6.43C408.47,2.88,405.59,0,402.04,0h-2.47c-2.43,0-4.66,1.38-5.75,3.55Z"/><path class="cls-2" d="m516.72,102.93h0c4.21,0,7.12-4.2,5.64-8.14L488.27,3.87C487.39,1.52,485.14,0,482.63,0h-17.39c-2.51,0-4.76,1.56-5.64,3.91l-34.09,90.91c-1.48,3.94,1.43,8.14,5.64,8.14h0c2.51,0,4.76-1.56,5.64-3.91l30.85-82.27c.88-2.35,3.13-3.91,5.64-3.91h1.32c2.51,0,4.76,1.56,5.64,3.91l30.84,82.24c.88,2.35,3.13,3.91,5.64,3.91Z"/><circle class="cls-2" cx="473.93" cy="62.71" r="6.44"/><circle class="cls-2" cx="122.65" cy="6.7" r="6.44"/></g></svg>