<svg xmlns="http://www.w3.org/2000/svg" width="20" height="20" viewBox="0 0 20 20">
  <path d="M15.8333333,11.6666667 L15.8333333,10 L15,10 L15,1.66666667 L18.3333333,1.66666667 L18.3333333,2.5 L20,2.5 L20,1.66666667 L20,0.833333333 L20,0 L16.6666667,0 L16.6666667,0 L15,0 L15,0 L8.33333333,0 L8.33333333,2.5 L10,2.5 L10,1.66666667 L13.3333333,1.66666667 L13.3333333,10 L12.5,10 L12.5,11.6666667 L15.8333333,11.6666667 Z M3.33333333,20 L3.33333333,20 L5,20 L5,20 L8.33333333,20 L8.33333333,19.1666667 L8.33333333,18.3333333 L8.33333333,17.5 L6.66666667,17.5 L6.66666667,18.3333333 L5,18.3333333 L5,13.3333333 L5.83333333,13.3333333 L5.83333333,11.6666667 L5,11.6666667 L3.33333333,11.6666667 L2.5,11.6666667 L2.5,13.3333333 L3.33333333,13.3333333 L3.33333333,18.3333333 L1.66666667,18.3333333 L1.66666667,17.5 L0,17.5 L0,18.3333333 L0,19.1666667 L0,20 L3.33333333,20 Z M18.3333333,4.16666667 L20,4.16666667 L20,18.3333333 L20,20 L12.5,20 L12.5,18.3333333 L18.3333333,18.3333333 L18.3333333,4.16666667 Z M1.66666667,10 L0,10 L0,1.66666667 L0,0 L6.66666667,0 L6.66666667,1.66666667 L1.66666667,1.66666667 L1.66666667,10 Z"/>
</svg>
