<svg xmlns="http://www.w3.org/2000/svg" width="20" height="20" viewBox="0 0 20 20">
  <path d="M6.66666667,0 L6.66666667,1.66666667 L1.66666667,1.66666667 L1.66666667,17.1333333 L7.13333333,11.6666667 L3.33333333,11.6666667 L3.33333333,10 L10,10 L10,16.6666667 L8.33333333,16.6666667 L8.33333333,12.8 L2.83333333,18.3333333 L18.3333333,18.3333333 L18.3333333,13.3333333 L20,13.3333333 L20,20 L0,20 L0,0 L6.66666667,0 Z M20,3.8191672e-14 L20,2.5 L18.3333333,2.5 L18.3333333,1.66666667 L15,1.66666667 L15,10 L15.8333333,10 L15.8333333,11.6666667 L12.5,11.6666667 L12.5,10 L13.3333333,10 L13.3333333,1.66666667 L10,1.66666667 L10,2.5 L8.33333333,2.5 L8.33333333,3.8191672e-14 L20,3.8191672e-14 Z"/>
</svg>
