<?xml version="1.0" encoding="UTF-8"?>
<svg width="32px" height="32px" viewBox="0 0 32 32" version="1.1" xmlns="http://www.w3.org/2000/svg" xmlns:xlink="http://www.w3.org/1999/xlink">
    <title>123A632E-2D59-45A7-A11C-53AA6839801C</title>
    <g id="🖥-Desktop" stroke="none" stroke-width="1" fill="none" fill-rule="evenodd">
        <g id="Desktop-/-01-Index" transform="translate(-1104.000000, -44.000000)" fill="#FFFFFF" fill-rule="nonzero">
            <g id="Icons-/-Accessibility" transform="translate(1104.000000, 44.000000)">
                <path d="M16,0 C24.836556,0 32,7.163444 32,16 C31.98885,24.8319334 24.8319334,31.98885 16,32 C7.163444,32 -4.72510919e-13,24.836556 -4.72510919e-13,16 C-4.72510919e-13,7.163444 7.163444,0 16,0 Z M25.4247514,6.57524865 C21.6127953,2.76329256 15.879922,1.62295316 10.8993613,3.68596893 C5.91880068,5.7489847 2.67138882,10.60908 2.67138882,16 L2.67138882,16 C2.69101243,23.3531481 8.64685699,29.3108018 16,29.3286112 C21.39092,29.3286112 26.2510153,26.0811993 28.3140311,21.1006387 C30.3770468,16.120078 29.2367074,10.3872047 25.4247514,6.57524865 Z M23.4881112,10.1103723 C23.8210551,10.412432 23.9530254,10.877669 23.8282755,11.3095593 C23.7160007,11.6982605 23.4134064,11.998936 23.0312632,12.1120537 L22.9010878,12.1426764 L17.8983051,13.6524159 C17.6457789,13.7358718 17.480116,13.9777396 17.4935492,14.2433595 C17.5238562,15.3163025 17.6157521,16.3866199 17.7687832,17.4490261 C17.9236023,18.1517835 18.3328485,19.3070453 18.7839299,20.476608 L18.9660898,20.944157 L19.1285276,21.3540345 C19.7777402,22.9804252 20.403744,24.4148748 20.403744,24.4148748 C20.6326724,24.997108 20.3682127,25.6568832 19.8005187,25.9198038 C19.270671,26.1651965 18.6480059,25.9855337 18.326684,25.5123646 L18.2625854,25.4065267 L15.9838098,20.5170756 L13.7212244,25.4065267 C13.5606108,25.8150149 13.1868487,26.1008494 12.7505514,26.1488486 C12.314254,26.1968479 11.8872911,25.9991052 11.6417142,25.635304 C11.3961372,25.2715028 11.3723992,24.8015709 11.5800658,24.4148748 C11.5800658,24.4148748 12.3174273,22.7300506 13.0211324,20.9416813 L13.2034373,20.4738411 C13.6547559,19.3035669 14.0632431,18.1477359 14.2150266,17.4449785 C14.3680488,16.3825713 14.4599447,15.3122545 14.4902606,14.2393119 C14.5020146,14.0068945 14.3766482,13.7926623 14.1759501,13.6868269 L14.0855047,13.6483683 L9.11915001,12.1548191 C8.80430186,12.0703324 8.53854858,11.8591378 8.38514305,11.5715024 C8.23173752,11.2838671 8.20440038,10.9455172 8.30963825,10.6369846 C8.53591478,10.0324851 9.19557757,9.71065506 9.81128257,9.90437642 C9.81128257,9.90437642 14.3769289,11.3695927 16.0040476,11.3695927 C17.6311662,11.3695927 22.2615735,9.88818619 22.2615735,9.88818619 C22.6793192,9.72211315 23.1551672,9.80831253 23.4881112,10.1103723 Z M16,5.61396408 C17.2562976,5.61396408 18.2747281,6.63239452 18.2747281,7.88869213 C18.2747281,9.14498975 17.2562976,10.1634202 16,10.1634202 C14.7437024,10.1634202 13.7252719,9.14498975 13.7252719,7.88869213 C13.7252719,6.63239452 14.7437024,5.61396408 16,5.61396408 Z"></path>
            </g>
        </g>
    </g>
</svg>